<?xml version="1.0" encoding="UTF-8"?>
<svg width="267px" height="63px" viewBox="0 0 267 63" version="1.1" xmlns="http://www.w3.org/2000/svg" xmlns:xlink="http://www.w3.org/1999/xlink">
    <title>Group</title>
    <g id="Page-1" stroke="none" stroke-width="1" fill="none" fill-rule="evenodd">
        <g id="thi-icon-copy-4" transform="translate(-16, -120)" fill="#0AAC4B">
            <g id="Group" transform="translate(17.2102, 120)">
                <g id="thi" transform="translate(133.2898, 18.5) rotate(-360) translate(-133.2898, -18.5)translate(36.7898, 0)">
                    <path d="M25.6785241,0.713770149 C27.8962981,0.713770149 28.924997,0.508532726 29.699385,0.355744867 C30.421078,0.152787859 30.833474,0 31.8140601,0 C33.8256361,0 38,3.92459561 38,9.42723897 C38,11.9767438 36.659713,13.6596907 34.0318341,13.6596907 C29.5458821,13.6596907 29.596286,7.6439538 26.9684071,7.6439538 C24.9568311,7.6439538 25.1630291,10.3986961 25.1630291,10.8046101 L25.1630291,26.450543 C25.1630291,32.5141687 29.905583,29.6111993 29.905583,33.1777697 C29.905583,34.7580978 28.924997,37 19.284095,37 C16.6562161,37 7.01302303,37.1023653 7.01302303,33.1777697 C7.01302303,30.4777573 10.209092,31.5472724 11.240082,29.6111993 C11.755577,28.5394039 11.961775,25.4813663 12.01447,24.2088943 L12.426866,12.9459206 C12.633064,7.59378466 11.549379,7.6439538 10.827686,7.6439538 C8.50681297,7.6439538 7.37272398,13.6596907 3.19606897,13.6596907 C1.18449295,13.6596907 0,11.823956 0,9.98822126 C0,5.65543122 3.71385506,0 6.65103099,0 C7.01302303,0 7.57892198,0.152787859 8.55950802,0.355744867 C9.54009406,0.508532726 10.930785,0.713770149 12.9950561,0.713770149 L25.6785241,0.713770149 Z" id="Fill-5"></path>
                    <path d="M38,18.3739643 C38,7.61437427 47.0092448,0 58.6314786,0 C73.347605,0 79,12.3356042 79,18.882649 C79,29.7943902 68.8702259,37 57.991853,37 C46.7439186,37 38,29.1857853 38,18.3739643 M56.1795805,7.56214325 C53.1946611,7.56214325 51.7022014,10.5075186 51.7022014,12.9941693 C51.7022014,17.3066348 54.9003293,29.4378567 60.6593286,29.4378567 C63.9119431,29.4378567 65.2977986,26.7490947 65.2977986,24.0058307 C65.2977986,19.3890628 62.4194834,7.56214325 56.1795805,7.56214325" id="Fill-7"></path>
                    <path d="M107.676976,0.713770149 C109.894616,0.713770149 110.925544,0.508532726 111.697595,0.355744867 C112.419244,0.152787859 112.831615,0 113.812142,0 C115.823597,0 120,3.92459561 120,9.42723897 C120,11.9767438 118.657503,13.6596907 116.029782,13.6596907 C111.544101,13.6596907 111.594502,7.6439538 108.966781,7.6439538 C106.957617,7.6439538 107.161512,10.3986961 107.161512,10.8046101 L107.161512,26.450543 C107.161512,32.5141687 111.906071,29.6111993 111.906071,33.1777697 C111.906071,34.7580978 110.925544,37 101.282932,37 C98.6552119,37 89.0126002,37.1023653 89.0126002,33.1777697 C89.0126002,30.4777573 92.2084765,31.5472724 93.2394044,29.6111993 C93.7571592,28.5394039 93.9610538,25.4813663 94.0137457,24.2088943 L94.4261168,12.9459206 C94.6323024,7.59378466 93.5486827,7.6439538 92.8270332,7.6439538 C90.5063001,7.6439538 89.3745704,13.6596907 85.1958763,13.6596907 C83.1867125,13.6596907 82,11.823956 82,9.98822126 C82,5.65543122 85.7136312,0 88.65063,0 C89.0126002,0 89.5784651,0.152787859 90.558992,0.355744867 C91.5395189,0.508532726 92.930126,0.713770149 94.9919817,0.713770149 L107.676976,0.713770149 Z" id="Fill-9"></path>
                    <path d="M124.564957,18.1191929 C126.168567,14.6175266 128.292142,10.1507448 128.292142,6.14267664 C128.292142,2.64101033 129.948668,0 134.559333,0 C139.061864,0 141.910169,4.51901165 143.930211,7.86625947 C144.80909,9.3400477 152.629276,24.8704601 154.492868,29.0329467 C156.202311,32.8888672 159,30.554423 159,33.4452279 C159,37.1512717 151.644563,36.999124 149.05624,36.999124 C141.652487,36.999124 137.198272,36.9468942 137.198272,33.801753 C137.198272,31.3673909 140.357176,32.2780058 140.357176,30.5044641 C140.357176,28.2177079 139.061864,28.0156014 130.726315,28.0156014 C128.03446,28.0156014 126.42855,28.1177901 126.42855,30.6043819 C126.42855,32.5823011 129.741602,31.2652022 129.741602,33.9039417 C129.741602,36.9468942 124.150826,36.999124 122.077867,36.999124 C114.674114,36.999124 114,35.6297954 114,34.0061304 C114,31.6194564 116.797689,32.3302356 118.300066,30.5044641 C119.438928,29.1351354 120.524873,26.6962316 121.302521,25.0725666 L124.564957,18.1191929 Z M135.438213,21.770736 C135.958178,21.770736 137.508871,21.8729247 137.508871,21.1121866 C137.508871,20.3514484 136.008794,17.712709 135.592362,17.0019298 C135.127614,16.1912327 134.246434,14.3132314 133.107572,14.3132314 C131.865177,14.3132314 130.986298,17.3584548 130.776931,17.9170864 C130.572166,18.4734471 129.690986,20.4536371 129.690986,21.0644985 C129.690986,21.9274254 130.986298,21.770736 131.556879,21.770736 L135.438213,21.770736 Z" id="Fill-11"></path>
                    <path d="M164.01391,36.2885054 C162.360972,36.2885054 159.72316,36.3911248 159.72316,34.0468413 C159.72316,30.8861633 163.756786,33.5360247 163.910601,27.6228659 C164.01391,23.9034823 164.01391,20.6424653 164.01391,17.6345763 C164.01391,14.5765177 163.756786,11.723698 163.651182,8.86859784 C163.547873,4.58594761 159,6.82761171 159,3.9246225 C159,0.202958398 167.113167,0 169.645375,0 C179.978528,0 180.495071,1.73312789 180.495071,3.46625578 C180.495071,6.42169492 176.413234,4.17775039 176.413234,8.97121726 L176.413234,25.1782435 C176.413234,28.8474576 177.033086,30.6330354 180.701688,30.6330354 C189.487508,30.6330354 186.489264,23.5454545 189.795138,23.5454545 C192.120729,23.5454545 193,25.9923575 193,27.9284438 C193,31.9055162 190.105064,37 187.728967,37 C186.79919,37 186.07603,36.799322 185.143957,36.6442527 C184.163673,36.4390139 183.027279,36.2885054 181.271033,36.2885054 L164.01391,36.2885054 Z" id="Fill-13"></path>
                </g>
                <g id="Green-Energy-Solutio" transform="translate(0, 41.346)" fill-rule="nonzero">
                    <path d="M8.25,16.918 C7.07666667,16.918 5.99133333,16.7053333 4.994,16.28 C3.99666667,15.8546667 3.124,15.2606667 2.376,14.498 C1.628,13.7353333 1.045,12.8406667 0.627,11.814 C0.209,10.7873333 0,9.66533333 0,8.448 C0,7.23066667 0.201666667,6.105 0.605,5.071 C1.00833333,4.037 1.58033333,3.14233333 2.321,2.387 C3.06166667,1.63166667 3.93066667,1.045 4.928,0.627 C5.92533333,0.209 7.01066667,0 8.184,0 C9.35733333,0 10.4096667,0.198 11.341,0.594 C12.2723333,0.99 13.0606667,1.51433333 13.706,2.167 C14.3513333,2.81966667 14.8133333,3.53466667 15.092,4.312 L12.43,5.588 C12.122,4.73733333 11.6013333,4.048 10.868,3.52 C10.1346667,2.992 9.24,2.728 8.184,2.728 C7.15733333,2.728 6.25166667,2.97 5.467,3.454 C4.68233333,3.938 4.07366667,4.60533333 3.641,5.456 C3.20833333,6.30666667 2.992,7.304 2.992,8.448 C2.992,9.592 3.21566667,10.593 3.663,11.451 C4.11033333,12.309 4.73,12.98 5.522,13.464 C6.314,13.948 7.22333333,14.19 8.25,14.19 C9.086,14.19 9.856,14.025 10.56,13.695 C11.264,13.365 11.8286667,12.8956667 12.254,12.287 C12.6793333,11.6783333 12.892,10.956 12.892,10.12 L12.892,8.866 L14.256,10.054 L8.184,10.054 L8.184,7.524 L15.884,7.524 L15.884,9.174 C15.884,10.4353333 15.6713333,11.55 15.246,12.518 C14.8206667,13.486 14.245,14.2963333 13.519,14.949 C12.793,15.6016667 11.9753333,16.093 11.066,16.423 C10.1566667,16.753 9.218,16.918 8.25,16.918 Z" id="Path" stroke="#0AAC4B"></path>
                    <path d="M18.1599355,16.654 L18.1599355,4.686 L20.8659355,4.686 L20.8659355,7.348 L20.6459355,6.952 C20.9246022,6.05733333 21.3609355,5.434 21.9549355,5.082 C22.5489355,4.73 23.2639355,4.554 24.0999355,4.554 L24.8039355,4.554 L24.8039355,7.106 L23.7699355,7.106 C22.9486022,7.106 22.2886022,7.359 21.7899355,7.865 C21.2912688,8.371 21.0419355,9.07866667 21.0419355,9.988 L21.0419355,16.654 L18.1599355,16.654 Z" id="Path"></path>
                    <path d="M32.205871,16.918 C30.973871,16.918 29.895871,16.6393333 28.971871,16.082 C28.047871,15.5246667 27.3292043,14.7693333 26.815871,13.816 C26.3025376,12.8626667 26.045871,11.8066667 26.045871,10.648 C26.045871,9.44533333 26.3062043,8.37833333 26.826871,7.447 C27.3475376,6.51566667 28.058871,5.77866667 28.960871,5.236 C29.862871,4.69333333 30.8712043,4.422 31.985871,4.422 C32.9245376,4.422 33.7495376,4.576 34.460871,4.884 C35.1722043,5.192 35.7772043,5.61733333 36.275871,6.16 C36.7745376,6.70266667 37.155871,7.32233333 37.419871,8.019 C37.683871,8.71566667 37.815871,9.46733333 37.815871,10.274 C37.815871,10.4793333 37.804871,10.692 37.782871,10.912 C37.760871,11.132 37.7205376,11.3226667 37.661871,11.484 L28.421871,11.484 L28.421871,9.284 L36.033871,9.284 L34.669871,10.318 C34.801871,9.64333333 34.768871,9.042 34.570871,8.514 C34.372871,7.986 34.0502043,7.568 33.602871,7.26 C33.1555376,6.952 32.6165376,6.798 31.985871,6.798 C31.3845376,6.798 30.8492043,6.94833333 30.379871,7.249 C29.9105376,7.54966667 29.554871,7.98966667 29.312871,8.569 C29.070871,9.14833333 28.9792043,9.84866667 29.037871,10.67 C28.9792043,11.4033333 29.0782043,12.0523333 29.334871,12.617 C29.5915376,13.1816667 29.972871,13.618 30.478871,13.926 C30.984871,14.234 31.567871,14.388 32.227871,14.388 C32.887871,14.388 33.448871,14.2486667 33.910871,13.97 C34.372871,13.6913333 34.735871,13.3173333 34.999871,12.848 L37.331871,13.992 C37.0972043,14.564 36.7305376,15.07 36.231871,15.51 C35.7332043,15.95 35.142871,16.2946667 34.460871,16.544 C33.778871,16.7933333 33.0272043,16.918 32.205871,16.918 Z" id="Path"></path>
                    <path d="M45.8118065,16.918 C44.5798065,16.918 43.5018065,16.6393333 42.5778065,16.082 C41.6538065,15.5246667 40.9351398,14.7693333 40.4218065,13.816 C39.9084731,12.8626667 39.6518065,11.8066667 39.6518065,10.648 C39.6518065,9.44533333 39.9121398,8.37833333 40.4328065,7.447 C40.9534731,6.51566667 41.6648065,5.77866667 42.5668065,5.236 C43.4688065,4.69333333 44.4771398,4.422 45.5918065,4.422 C46.5304731,4.422 47.3554731,4.576 48.0668065,4.884 C48.7781398,5.192 49.3831398,5.61733333 49.8818065,6.16 C50.3804731,6.70266667 50.7618065,7.32233333 51.0258065,8.019 C51.2898065,8.71566667 51.4218065,9.46733333 51.4218065,10.274 C51.4218065,10.4793333 51.4108065,10.692 51.3888065,10.912 C51.3668065,11.132 51.3264731,11.3226667 51.2678065,11.484 L42.0278065,11.484 L42.0278065,9.284 L49.6398065,9.284 L48.2758065,10.318 C48.4078065,9.64333333 48.3748065,9.042 48.1768065,8.514 C47.9788065,7.986 47.6561398,7.568 47.2088065,7.26 C46.7614731,6.952 46.2224731,6.798 45.5918065,6.798 C44.9904731,6.798 44.4551398,6.94833333 43.9858065,7.249 C43.5164731,7.54966667 43.1608065,7.98966667 42.9188065,8.569 C42.6768065,9.14833333 42.5851398,9.84866667 42.6438065,10.67 C42.5851398,11.4033333 42.6841398,12.0523333 42.9408065,12.617 C43.1974731,13.1816667 43.5788065,13.618 44.0848065,13.926 C44.5908065,14.234 45.1738065,14.388 45.8338065,14.388 C46.4938065,14.388 47.0548065,14.2486667 47.5168065,13.97 C47.9788065,13.6913333 48.3418065,13.3173333 48.6058065,12.848 L50.9378065,13.992 C50.7031398,14.564 50.3364731,15.07 49.8378065,15.51 C49.3391398,15.95 48.7488065,16.2946667 48.0668065,16.544 C47.3848065,16.7933333 46.6331398,16.918 45.8118065,16.918 Z" id="Path"></path>
                    <path d="M53.7417419,16.654 L53.7417419,4.686 L56.4477419,4.686 L56.4477419,7.04 L56.2277419,6.622 C56.5064086,5.90333333 56.9647419,5.357 57.6027419,4.983 C58.2407419,4.609 58.9850753,4.422 59.8357419,4.422 C60.7157419,4.422 61.4967419,4.61266667 62.1787419,4.994 C62.8607419,5.37533333 63.3924086,5.907 63.7737419,6.589 C64.1550753,7.271 64.3457419,8.05933333 64.3457419,8.954 L64.3457419,16.654 L61.4637419,16.654 L61.4637419,9.636 C61.4637419,9.108 61.3610753,8.65333333 61.1557419,8.272 C60.9504086,7.89066667 60.6680753,7.59366667 60.3087419,7.381 C59.9494086,7.16833333 59.5277419,7.062 59.0437419,7.062 C58.5744086,7.062 58.1564086,7.16833333 57.7897419,7.381 C57.4230753,7.59366667 57.1370753,7.89066667 56.9317419,8.272 C56.7264086,8.65333333 56.6237419,9.108 56.6237419,9.636 L56.6237419,16.654 L53.7417419,16.654 Z" id="Path"></path>
                    <polygon id="Path" stroke="#0AAC4B" points="72.1876774 16.654 72.1876774 0.264 83.0776774 0.264 83.0776774 2.904 75.1796774 2.904 75.1796774 7.106 82.6376774 7.106 82.6376774 9.746 75.1796774 9.746 75.1796774 14.014 83.0776774 14.014 83.0776774 16.654"></polygon>
                    <path d="M86.1356774,16.654 L86.1356774,4.686 L88.8416774,4.686 L88.8416774,7.04 L88.6216774,6.622 C88.9003441,5.90333333 89.3586774,5.357 89.9966774,4.983 C90.6346774,4.609 91.3790108,4.422 92.2296774,4.422 C93.1096774,4.422 93.8906774,4.61266667 94.5726774,4.994 C95.2546774,5.37533333 95.7863441,5.907 96.1676774,6.589 C96.5490108,7.271 96.7396774,8.05933333 96.7396774,8.954 L96.7396774,16.654 L93.8576774,16.654 L93.8576774,9.636 C93.8576774,9.108 93.7550108,8.65333333 93.5496774,8.272 C93.3443441,7.89066667 93.0620108,7.59366667 92.7026774,7.381 C92.3433441,7.16833333 91.9216774,7.062 91.4376774,7.062 C90.9683441,7.062 90.5503441,7.16833333 90.1836774,7.381 C89.8170108,7.59366667 89.5310108,7.89066667 89.3256774,8.272 C89.1203441,8.65333333 89.0176774,9.108 89.0176774,9.636 L89.0176774,16.654 L86.1356774,16.654 Z" id="Path"></path>
                    <path d="M105.957677,16.918 C104.725677,16.918 103.647677,16.6393333 102.723677,16.082 C101.799677,15.5246667 101.081011,14.7693333 100.567677,13.816 C100.054344,12.8626667 99.7976774,11.8066667 99.7976774,10.648 C99.7976774,9.44533333 100.058011,8.37833333 100.578677,7.447 C101.099344,6.51566667 101.810677,5.77866667 102.712677,5.236 C103.614677,4.69333333 104.623011,4.422 105.737677,4.422 C106.676344,4.422 107.501344,4.576 108.212677,4.884 C108.924011,5.192 109.529011,5.61733333 110.027677,6.16 C110.526344,6.70266667 110.907677,7.32233333 111.171677,8.019 C111.435677,8.71566667 111.567677,9.46733333 111.567677,10.274 C111.567677,10.4793333 111.556677,10.692 111.534677,10.912 C111.512677,11.132 111.472344,11.3226667 111.413677,11.484 L102.173677,11.484 L102.173677,9.284 L109.785677,9.284 L108.421677,10.318 C108.553677,9.64333333 108.520677,9.042 108.322677,8.514 C108.124677,7.986 107.802011,7.568 107.354677,7.26 C106.907344,6.952 106.368344,6.798 105.737677,6.798 C105.136344,6.798 104.601011,6.94833333 104.131677,7.249 C103.662344,7.54966667 103.306677,7.98966667 103.064677,8.569 C102.822677,9.14833333 102.731011,9.84866667 102.789677,10.67 C102.731011,11.4033333 102.830011,12.0523333 103.086677,12.617 C103.343344,13.1816667 103.724677,13.618 104.230677,13.926 C104.736677,14.234 105.319677,14.388 105.979677,14.388 C106.639677,14.388 107.200677,14.2486667 107.662677,13.97 C108.124677,13.6913333 108.487677,13.3173333 108.751677,12.848 L111.083677,13.992 C110.849011,14.564 110.482344,15.07 109.983677,15.51 C109.485011,15.95 108.894677,16.2946667 108.212677,16.544 C107.530677,16.7933333 106.779011,16.918 105.957677,16.918 Z" id="Path"></path>
                    <path d="M114.845677,16.654 L114.845677,4.686 L117.551677,4.686 L117.551677,7.348 L117.331677,6.952 C117.610344,6.05733333 118.046677,5.434 118.640677,5.082 C119.234677,4.73 119.949677,4.554 120.785677,4.554 L121.489677,4.554 L121.489677,7.106 L120.455677,7.106 C119.634344,7.106 118.974344,7.359 118.475677,7.865 C117.977011,8.371 117.727677,9.07866667 117.727677,9.988 L117.727677,16.654 L114.845677,16.654 Z" id="Path"></path>
                    <path d="M129.981677,21.494 C129.087011,21.494 128.258344,21.3473333 127.495677,21.054 C126.733011,20.7606667 126.076677,20.3536667 125.526677,19.833 C124.976677,19.3123333 124.577011,18.7 124.327677,17.996 L127.011677,16.984 C127.187677,17.5413333 127.536011,17.9923333 128.056677,18.337 C128.577344,18.6816667 129.219011,18.854 129.981677,18.854 C130.568344,18.854 131.085344,18.744 131.532677,18.524 C131.980011,18.304 132.328344,17.985 132.577677,17.567 C132.827011,17.149 132.951677,16.6466667 132.951677,16.06 L132.951677,13.332 L133.501677,13.992 C133.091011,14.7106667 132.541011,15.2533333 131.851677,15.62 C131.162344,15.9866667 130.377677,16.17 129.497677,16.17 C128.383011,16.17 127.385677,15.9133333 126.505677,15.4 C125.625677,14.8866667 124.936344,14.1826667 124.437677,13.288 C123.939011,12.3933333 123.689677,11.3886667 123.689677,10.274 C123.689677,9.14466667 123.939011,8.14 124.437677,7.26 C124.936344,6.38 125.618344,5.687 126.483677,5.181 C127.349011,4.675 128.331677,4.422 129.431677,4.422 C130.326344,4.422 131.114677,4.609 131.796677,4.983 C132.478677,5.357 133.047011,5.896 133.501677,6.6 L133.105677,7.326 L133.105677,4.686 L135.833677,4.686 L135.833677,16.06 C135.833677,17.1013333 135.580677,18.0326667 135.074677,18.854 C134.568677,19.6753333 133.879344,20.3206667 133.006677,20.79 C132.134011,21.2593333 131.125677,21.494 129.981677,21.494 Z M129.849677,13.508 C130.465677,13.508 131.004677,13.3723333 131.466677,13.101 C131.928677,12.8296667 132.291677,12.452 132.555677,11.968 C132.819677,11.484 132.951677,10.9266667 132.951677,10.296 C132.951677,9.68 132.816011,9.12633333 132.544677,8.635 C132.273344,8.14366667 131.906677,7.75866667 131.444677,7.48 C130.982677,7.20133333 130.451011,7.062 129.849677,7.062 C129.248344,7.062 128.705677,7.20133333 128.221677,7.48 C127.737677,7.75866667 127.360011,8.14366667 127.088677,8.635 C126.817344,9.12633333 126.681677,9.68 126.681677,10.296 C126.681677,10.912 126.817344,11.462 127.088677,11.946 C127.360011,12.43 127.734011,12.8113333 128.210677,13.09 C128.687344,13.3686667 129.233677,13.508 129.849677,13.508 Z" id="Shape"></path>
                    <path d="M141.069677,21.494 C140.747011,21.494 140.431677,21.4683333 140.123677,21.417 C139.815677,21.3656667 139.537011,21.274 139.287677,21.142 L139.287677,18.744 C139.478344,18.788 139.709344,18.832 139.980677,18.876 C140.252011,18.92 140.505011,18.942 140.739677,18.942 C141.399677,18.942 141.880011,18.7916667 142.180677,18.491 C142.481344,18.1903333 142.749011,17.7906667 142.983677,17.292 L143.775677,15.444 L143.731677,17.864 L138.517677,4.686 L141.619677,4.686 L145.271677,14.41 L144.171677,14.41 L147.801677,4.686 L150.925677,4.686 L145.711677,17.864 C145.403677,18.6266667 145.029677,19.2793333 144.589677,19.822 C144.149677,20.3646667 143.640011,20.779 143.060677,21.065 C142.481344,21.351 141.817677,21.494 141.069677,21.494 Z" id="Path"></path>
                    <path d="M164.719677,16.918 C163.678344,16.918 162.714011,16.7273333 161.826677,16.346 C160.939344,15.9646667 160.176677,15.433 159.538677,14.751 C158.900677,14.069 158.435011,13.2733333 158.141677,12.364 L160.627677,11.286 C161.023677,12.2246667 161.595677,12.9616667 162.343677,13.497 C163.091677,14.0323333 163.935011,14.3 164.873677,14.3 C165.401677,14.3 165.860011,14.2156667 166.248677,14.047 C166.637344,13.8783333 166.938011,13.6473333 167.150677,13.354 C167.363344,13.0606667 167.469677,12.7086667 167.469677,12.298 C167.469677,11.814 167.326677,11.4143333 167.040677,11.099 C166.754677,10.7836667 166.325677,10.538 165.753677,10.362 L162.607677,9.35 C161.331677,8.954 160.371011,8.36 159.725677,7.568 C159.080344,6.776 158.757677,5.84466667 158.757677,4.774 C158.757677,3.83533333 158.988677,3.00666667 159.450677,2.288 C159.912677,1.56933333 160.558011,1.00833333 161.386677,0.605 C162.215344,0.201666667 163.165011,0 164.235677,0 C165.218344,0 166.120344,0.172333333 166.941677,0.517 C167.763011,0.861666667 168.470677,1.33833333 169.064677,1.947 C169.658677,2.55566667 170.102344,3.27066667 170.395677,4.092 L167.931677,5.192 C167.609011,4.37066667 167.125011,3.73633333 166.479677,3.289 C165.834344,2.84166667 165.086344,2.618 164.235677,2.618 C163.737011,2.618 163.297011,2.70233333 162.915677,2.871 C162.534344,3.03966667 162.237344,3.27433333 162.024677,3.575 C161.812011,3.87566667 161.705677,4.23133333 161.705677,4.642 C161.705677,5.09666667 161.852344,5.49633333 162.145677,5.841 C162.439011,6.18566667 162.886344,6.45333333 163.487677,6.644 L166.501677,7.59 C167.807011,8.01533333 168.786011,8.602 169.438677,9.35 C170.091344,10.098 170.417677,11.022 170.417677,12.122 C170.417677,13.0606667 170.175677,13.8893333 169.691677,14.608 C169.207677,15.3266667 168.540344,15.8913333 167.689677,16.302 C166.839011,16.7126667 165.849011,16.918 164.719677,16.918 Z" id="Path" stroke="#0AAC4B"></path>
                    <path d="M179.811677,16.918 C178.638344,16.918 177.571344,16.6466667 176.610677,16.104 C175.650011,15.5613333 174.887344,14.8206667 174.322677,13.882 C173.758011,12.9433333 173.475677,11.8726667 173.475677,10.67 C173.475677,9.46733333 173.758011,8.39666667 174.322677,7.458 C174.887344,6.51933333 175.646344,5.77866667 176.599677,5.236 C177.553011,4.69333333 178.623677,4.422 179.811677,4.422 C180.985011,4.422 182.048344,4.69333333 183.001677,5.236 C183.955011,5.77866667 184.714011,6.51566667 185.278677,7.447 C185.843344,8.37833333 186.125677,9.45266667 186.125677,10.67 C186.125677,11.8726667 185.839677,12.9433333 185.267677,13.882 C184.695677,14.8206667 183.933011,15.5613333 182.979677,16.104 C182.026344,16.6466667 180.970344,16.918 179.811677,16.918 Z M179.811677,14.278 C180.457011,14.278 181.025344,14.124 181.516677,13.816 C182.008011,13.508 182.396677,13.079 182.682677,12.529 C182.968677,11.979 183.111677,11.3593333 183.111677,10.67 C183.111677,9.966 182.968677,9.34633333 182.682677,8.811 C182.396677,8.27566667 182.008011,7.85033333 181.516677,7.535 C181.025344,7.21966667 180.457011,7.062 179.811677,7.062 C179.151677,7.062 178.572344,7.21966667 178.073677,7.535 C177.575011,7.85033333 177.182677,8.27566667 176.896677,8.811 C176.610677,9.34633333 176.467677,9.966 176.467677,10.67 C176.467677,11.3593333 176.610677,11.979 176.896677,12.529 C177.182677,13.079 177.575011,13.508 178.073677,13.816 C178.572344,14.124 179.151677,14.278 179.811677,14.278 Z" id="Shape"></path>
                    <polygon id="Path" points="189.403677 16.654 189.403677 0 192.285677 0 192.285677 16.654"></polygon>
                    <path d="M200.315677,16.918 C199.391677,16.918 198.588677,16.7126667 197.906677,16.302 C197.224677,15.8913333 196.704011,15.3193333 196.344677,14.586 C195.985344,13.8526667 195.805677,12.9946667 195.805677,12.012 L195.805677,4.686 L198.687677,4.686 L198.687677,11.77 C198.687677,12.2686667 198.786677,12.705 198.984677,13.079 C199.182677,13.453 199.468677,13.7463333 199.842677,13.959 C200.216677,14.1716667 200.638344,14.278 201.107677,14.278 C201.577011,14.278 201.995011,14.1716667 202.361677,13.959 C202.728344,13.7463333 203.014344,13.4493333 203.219677,13.068 C203.425011,12.6866667 203.527677,12.232 203.527677,11.704 L203.527677,4.686 L206.409677,4.686 L206.409677,16.654 L203.681677,16.654 L203.681677,14.3 L203.923677,14.718 C203.645011,15.4513333 203.186677,16.0013333 202.548677,16.368 C201.910677,16.7346667 201.166344,16.918 200.315677,16.918 Z" id="Path"></path>
                    <path d="M215.649677,16.786 C214.300344,16.786 213.255344,16.4156667 212.514677,15.675 C211.774011,14.9343333 211.403677,13.8893333 211.403677,12.54 L211.403677,7.26 L209.335677,7.26 L209.335677,4.686 L209.555677,4.686 C210.142344,4.686 210.597011,4.532 210.919677,4.224 C211.242344,3.916 211.403677,3.46866667 211.403677,2.882 L211.403677,1.958 L214.285677,1.958 L214.285677,4.686 L217.035677,4.686 L217.035677,7.26 L214.285677,7.26 L214.285677,12.386 C214.285677,12.782 214.355344,13.1193333 214.494677,13.398 C214.634011,13.6766667 214.854011,13.8893333 215.154677,14.036 C215.455344,14.1826667 215.840344,14.256 216.309677,14.256 C216.412344,14.256 216.533344,14.2486667 216.672677,14.234 C216.812011,14.2193333 216.947677,14.2046667 217.079677,14.19 L217.079677,16.654 C216.874344,16.6833333 216.639677,16.7126667 216.375677,16.742 C216.111677,16.7713333 215.869677,16.786 215.649677,16.786 Z" id="Path"></path>
                    <path d="M220.379677,16.654 L220.379677,4.686 L223.261677,4.686 L223.261677,16.654 L220.379677,16.654 Z M220.379677,3.344 L220.379677,0.264 L223.261677,0.264 L223.261677,3.344 L220.379677,3.344 Z" id="Shape"></path>
                    <path d="M232.875677,16.918 C231.702344,16.918 230.635344,16.6466667 229.674677,16.104 C228.714011,15.5613333 227.951344,14.8206667 227.386677,13.882 C226.822011,12.9433333 226.539677,11.8726667 226.539677,10.67 C226.539677,9.46733333 226.822011,8.39666667 227.386677,7.458 C227.951344,6.51933333 228.710344,5.77866667 229.663677,5.236 C230.617011,4.69333333 231.687677,4.422 232.875677,4.422 C234.049011,4.422 235.112344,4.69333333 236.065677,5.236 C237.019011,5.77866667 237.778011,6.51566667 238.342677,7.447 C238.907344,8.37833333 239.189677,9.45266667 239.189677,10.67 C239.189677,11.8726667 238.903677,12.9433333 238.331677,13.882 C237.759677,14.8206667 236.997011,15.5613333 236.043677,16.104 C235.090344,16.6466667 234.034344,16.918 232.875677,16.918 Z M232.875677,14.278 C233.521011,14.278 234.089344,14.124 234.580677,13.816 C235.072011,13.508 235.460677,13.079 235.746677,12.529 C236.032677,11.979 236.175677,11.3593333 236.175677,10.67 C236.175677,9.966 236.032677,9.34633333 235.746677,8.811 C235.460677,8.27566667 235.072011,7.85033333 234.580677,7.535 C234.089344,7.21966667 233.521011,7.062 232.875677,7.062 C232.215677,7.062 231.636344,7.21966667 231.137677,7.535 C230.639011,7.85033333 230.246677,8.27566667 229.960677,8.811 C229.674677,9.34633333 229.531677,9.966 229.531677,10.67 C229.531677,11.3593333 229.674677,11.979 229.960677,12.529 C230.246677,13.079 230.639011,13.508 231.137677,13.816 C231.636344,14.124 232.215677,14.278 232.875677,14.278 Z" id="Shape"></path>
                    <path d="M242.467677,16.654 L242.467677,4.686 L245.173677,4.686 L245.173677,7.04 L244.953677,6.622 C245.232344,5.90333333 245.690677,5.357 246.328677,4.983 C246.966677,4.609 247.711011,4.422 248.561677,4.422 C249.441677,4.422 250.222677,4.61266667 250.904677,4.994 C251.586677,5.37533333 252.118344,5.907 252.499677,6.589 C252.881011,7.271 253.071677,8.05933333 253.071677,8.954 L253.071677,16.654 L250.189677,16.654 L250.189677,9.636 C250.189677,9.108 250.087011,8.65333333 249.881677,8.272 C249.676344,7.89066667 249.394011,7.59366667 249.034677,7.381 C248.675344,7.16833333 248.253677,7.062 247.769677,7.062 C247.300344,7.062 246.882344,7.16833333 246.515677,7.381 C246.149011,7.59366667 245.863011,7.89066667 245.657677,8.272 C245.452344,8.65333333 245.349677,9.108 245.349677,9.636 L245.349677,16.654 L242.467677,16.654 Z" id="Path"></path>
                    <path d="M261.167677,16.918 C259.891677,16.918 258.780677,16.6136667 257.834677,16.005 C256.888677,15.3963333 256.239677,14.5713333 255.887677,13.53 L258.043677,12.496 C258.351677,13.1706667 258.780677,13.6986667 259.330677,14.08 C259.880677,14.4613333 260.493011,14.652 261.167677,14.652 C261.695677,14.652 262.113677,14.5346667 262.421677,14.3 C262.729677,14.0653333 262.883677,13.7573333 262.883677,13.376 C262.883677,13.1413333 262.821344,12.947 262.696677,12.793 C262.572011,12.639 262.403344,12.507 262.190677,12.397 C261.978011,12.287 261.747011,12.1953333 261.497677,12.122 L259.539677,11.572 C258.527677,11.2786667 257.761344,10.8313333 257.240677,10.23 C256.720011,9.62866667 256.459677,8.91733333 256.459677,8.096 C256.459677,7.36266667 256.646677,6.721 257.020677,6.171 C257.394677,5.621 257.915344,5.192 258.582677,4.884 C259.250011,4.576 260.016344,4.422 260.881677,4.422 C262.011011,4.422 263.008344,4.69333333 263.873677,5.236 C264.739011,5.77866667 265.355011,6.54133333 265.721677,7.524 L263.521677,8.558 C263.316344,8.01533333 262.971677,7.58266667 262.487677,7.26 C262.003677,6.93733333 261.461011,6.776 260.859677,6.776 C260.375677,6.776 259.994344,6.886 259.715677,7.106 C259.437011,7.326 259.297677,7.612 259.297677,7.964 C259.297677,8.184 259.356344,8.37466667 259.473677,8.536 C259.591011,8.69733333 259.756011,8.82933333 259.968677,8.932 C260.181344,9.03466667 260.427011,9.13 260.705677,9.218 L262.619677,9.79 C263.602344,10.0833333 264.361344,10.5233333 264.896677,11.11 C265.432011,11.6966667 265.699677,12.4153333 265.699677,13.266 C265.699677,13.9846667 265.509011,14.619 265.127677,15.169 C264.746344,15.719 264.218344,16.148 263.543677,16.456 C262.869011,16.764 262.077011,16.918 261.167677,16.918 Z" id="Path"></path>
                </g>
            </g>
        </g>
    </g>
</svg>