<?xml version="1.0" encoding="UTF-8"?>
<svg width="300px" height="300px" viewBox="0 0 300 300" version="1.1" xmlns="http://www.w3.org/2000/svg" xmlns:xlink="http://www.w3.org/1999/xlink">
    <title>thi-icon</title>
    <g id="thi-icon" stroke="none" stroke-width="1" fill="none" fill-rule="evenodd">
        <g id="thi" transform="translate(150.000000, 150.000000) rotate(-360.000000) translate(-150.000000, -150.000000) translate(46.000000, 81.000000)" fill="#F9B006">
            <path d="M51.5967684,58.5401504 C53.2892801,58.5401504 54.0743398,58.3848356 54.6653201,58.2692123 C55.2160859,58.1156232 55.5308091,58 56.2791511,58 C57.8143012,58 61,60.9699642 61,65.1341268 C61,67.0634818 59.9771494,68.3370632 57.9716628,68.3370632 C54.5481732,68.3370632 54.5866393,63.7846137 52.5811528,63.7846137 C51.0460027,63.7846137 51.2033643,65.8692835 51.2033643,66.1764617 L51.2033643,78.0166271 C51.2033643,82.6053168 54.8226818,80.4084752 54.8226818,83.1075014 C54.8226818,84.3034254 54.0743398,85.9998082 46.7168094,85.9998082 C44.7113228,85.9998082 37.3520439,86.0774656 37.3520439,83.1075014 C37.3520439,81.0642488 39.7911492,81.8736115 40.5779573,80.4084752 C40.9713614,79.5973867 41.128723,77.2831961 41.1689377,76.3202443 L41.4836609,67.7969129 C41.6410225,63.7466478 40.8139998,63.7846137 40.2632341,63.7846137 C38.4920415,63.7846137 37.6265525,68.3370632 34.4391053,68.3370632 C32.9039551,68.3370632 32,66.9478586 32,65.5586539 C32,62.2797858 34.8342578,58 37.0757868,58 C37.3520439,58 37.7839141,58.1156232 38.5322561,58.2692123 C39.2805981,58.3848356 40.3419149,58.5401504 41.9172796,58.5401504 L51.5967684,58.5401504 Z" id="Fill-5"></path>
            <path d="M61,71.9046216 C61,63.7622292 67.811868,58 76.5994106,58 C87.7262379,58 92,67.3350519 92,72.2895722 C92,80.5471061 84.3409025,86 76.1157913,86 C67.6112556,86 61,80.0865402 61,71.9046216 M74.7455365,63.722703 C72.4886462,63.722703 71.3602011,65.9516357 71.3602011,67.8334254 C71.3602011,71.0969128 73.7782978,80.277297 78.1326631,80.277297 C80.591957,80.277297 81.6397989,78.2425582 81.6397989,76.1665746 C81.6397989,72.6728043 79.4635119,63.722703 74.7455365,63.722703" id="Fill-7"></path>
            <path d="M113.595587,58.5401504 C115.287997,58.5401504 116.074757,58.3848356 116.663954,58.2692123 C117.214686,58.1156232 117.52939,58 118.277687,58 C119.812745,58 123,60.9699642 123,65.1341268 C123,67.0634818 121.975463,68.3370632 119.970097,68.3370632 C116.546814,68.3370632 116.585278,63.7846137 114.579912,63.7846137 C113.046603,63.7846137 113.202207,65.8692835 113.202207,66.1764617 L113.202207,78.0166271 C113.202207,82.6053168 116.823054,80.4084752 116.823054,83.1075014 C116.823054,84.3034254 116.074757,85.9998082 108.715922,85.9998082 C106.710556,85.9998082 99.3517212,86.0774656 99.3517212,83.1075014 C99.3517212,81.0642488 101.790679,81.8736115 102.57744,80.4084752 C102.972569,79.5973867 103.128173,77.2831961 103.168385,76.3202443 L103.483089,67.7969129 C103.640441,63.7466478 102.813468,63.7846137 102.262736,63.7846137 C100.49165,63.7846137 99.6279617,68.3370632 96.4389582,68.3370632 C94.905649,68.3370632 94,66.9478586 94,65.5586539 C94,62.2797858 96.8340869,58 99.0754808,58 C99.3517212,58 99.7835654,58.1156232 100.531862,58.2692123 C101.280159,58.3848356 102.341412,58.5401504 103.914933,58.5401504 L113.595587,58.5401504 Z" id="Fill-9"></path>
            <path d="M127.982412,71.7118217 C129.194028,69.061912 130.798507,65.6816447 130.798507,62.6485121 C130.798507,59.9986024 132.050105,58 135.533718,58 C138.935631,58 141.087683,61.4197926 142.613937,63.952845 C143.277979,65.0681442 149.186564,76.8208887 150.594611,79.9708786 C151.886191,82.8888725 154,81.122266 154,83.3099022 C154,86.1144758 148.442558,85.9993371 146.486937,85.9993371 C140.89299,85.9993371 137.527583,85.9598119 137.527583,83.5797049 C137.527583,81.737485 139.914311,82.426599 139.914311,81.0844593 C139.914311,79.3539411 138.935631,79.2009956 132.63766,79.2009956 C130.603814,79.2009956 129.39046,79.2783276 129.39046,81.1600728 C129.39046,82.6568765 131.893655,81.660153 131.893655,83.6570369 C131.893655,85.9598119 127.669513,85.9993371 126.103277,85.9993371 C120.509331,85.9993371 120,84.9630884 120,83.7343689 C120,81.9282373 122.113809,82.4661242 123.248939,81.0844593 C124.109413,80.0482106 124.929904,78.2025537 125.51746,76.9738342 L127.982412,71.7118217 Z M136.197761,74.4751516 C136.590623,74.4751516 137.762258,74.5524836 137.762258,73.9767898 C137.762258,73.4010961 136.628867,71.4042122 136.314229,70.8663252 C135.963086,70.2528247 135.297306,68.8316346 134.436832,68.8316346 C133.498134,68.8316346 132.834092,71.136128 132.675904,71.5588762 C132.521192,71.9799059 131.855412,73.4784281 131.855412,73.9407016 C131.855412,74.5937273 132.834092,74.4751516 133.265198,74.4751516 L136.197761,74.4751516 Z" id="Fill-11"></path>
            <path d="M156.834166,85.4615716 C155.570155,85.4615716 153.553005,85.5392296 153.553005,83.7651772 C153.553005,81.3733128 156.637542,83.3786133 156.755165,78.9037904 C156.834166,76.0891217 156.834166,73.6213251 156.834166,71.3450847 C156.834166,69.0308783 156.637542,66.8719877 156.556786,64.7113713 C156.477785,61.4704468 153,63.1668413 153,60.9699846 C153,58.1535901 159.204186,58 161.140581,58 C169.042404,58 169.437407,59.3115562 169.437407,60.6231125 C169.437407,62.859661 166.316003,61.1615408 166.316003,64.7890293 L166.316003,77.0538059 C166.316003,79.8305085 166.790007,81.1817565 169.595409,81.1817565 C176.313977,81.1817565 174.021202,75.8181818 176.549223,75.8181818 C178.327616,75.8181818 179,77.6698921 179,79.1350385 C179,82.1447149 176.786226,86 174.96921,86 C174.258204,86 173.705199,85.8481356 172.992438,85.7307858 C172.242809,85.57547 171.373801,85.4615716 170.03079,85.4615716 L156.834166,85.4615716 Z" id="Fill-13"></path>
            <path d="M13.850935,100.078707 C13.850935,100.576571 13.9156464,100.825503 14.34589,101.074436 C14.6659491,101.259304 14.8898157,101.356315 14.8898157,101.771812 C14.8898157,102.172666 14.8583345,103 11.7102112,103 C11.0071304,103 8.96434818,102.983527 8.96434818,101.870653 C8.89963676,100.593045 10.0819319,102.004271 10.0819319,98.6363636 C10.0819319,97.7394753 9.88954662,97.7724222 9.09027311,97.7724222 C6.85510561,97.7724222 7.06323154,97.8364857 7.06323154,99.3337401 C7.06323154,101.607077 8.0531414,100.693716 8.0531414,101.771812 C8.0531414,102.934106 5.72178125,103 4.95398897,103 C4.22117584,103 2,102.934106 2,101.804759 C2,101.456986 2.23960716,101.242831 2.51069555,101.107383 C3.08610252,100.825503 3.29247948,100.876754 3.29247948,97.4081757 C3.29247948,92.9914582 3.23126598,93.3557047 2.63836943,93.0244051 C2.39876228,92.8907871 2.11193327,92.7406955 2.11193327,92.4112264 C2.11193327,91.1317877 4.77909323,91 5.6745594,91 C6.34441006,91 8.19830486,91.0823673 8.19830486,92.0780964 C8.19830486,92.5924344 7.92546751,92.7754728 7.55818647,93.0079317 C7.15942419,93.2422209 7.06323154,93.4399024 7.06323154,94.9170226 C7.06323154,95.8468578 7.47773443,95.7297132 8.24552671,95.7297132 L9.06054083,95.7297132 C10.1134132,95.7297132 10.0819319,95.5649786 10.0819319,95.0488103 C10.0819319,93.2422209 9.81084354,93.1232459 9.60271761,93.0079317 C9.29839903,92.8248932 9.01157003,92.6766321 9.01157003,92.2446614 C9.01157003,91.9298353 8.94860756,91 12.1264631,91 C12.8767658,91 15,91.0164735 15,92.1787675 C15,92.543014 14.8251043,92.7919463 14.5050451,92.9585113 C14.0275797,93.1744966 13.850935,93.1232459 13.850935,95.7644905 L13.850935,100.078707 Z" id="Fill-15"></path>
            <path d="M15,96.9582451 C15,93.4689864 17.8561868,91 21.5416489,91 C26.2063221,91 28,95.0012103 28,97.1234493 C28,100.66354 24.7884095,103 21.3380322,103 C17.7728891,103 15,100.465658 15,96.9582451 M20.7642033,93.4526475 C19.8183113,93.4526475 19.3444397,94.4075643 19.3444397,95.2136157 C19.3444397,96.6151286 20.3606721,100.549168 22.183967,100.549168 C23.2150078,100.549168 23.6537092,99.6759455 23.6537092,98.7881997 C23.6537092,97.2886536 22.7411363,93.4526475 20.7642033,93.4526475" id="Fill-17"></path>
            <path d="M33.1023335,98.1533661 C33.0087506,97.9392592 32.8385999,97.4378465 32.5578512,97.4378465 C32.0763247,97.4378465 32.2311619,99.6301547 32.2311619,100.177317 C32.2311619,101.952391 33.2265435,101.125243 33.2265435,102.0201 C33.2265435,102.966196 31.5641711,102.999136 30.9567331,102.999136 C30.4122509,102.999136 29,102.949726 29,102.085979 C29,101.141713 29.9324259,101.921281 30.0566359,100.557951 C30.1808459,99.1671714 30.3203695,97.6226738 30.3203695,95.2162588 C30.3203695,94.2207532 30.2591152,93.7047007 30.0889645,93.3240663 C29.9324259,92.9745413 29.0459407,92.859253 29.0459407,92.1785029 C29.0459407,91.2342366 30.4922217,91 31.7360233,91 C33.5532329,91 33.5209042,91.3312252 33.9888187,92.1785029 C34.5315994,93.1593686 35.4946524,95.8805391 36.1786582,96.0470667 C36.6601847,96.1605251 37.2982499,94.1530442 37.8563442,93.0587201 C38.6492465,91.4977528 38.66456,91 40.7165775,91 C41.3988819,91 42.9540593,91.0494093 42.9540593,92.0961541 C42.9540593,92.7604344 42.2530384,92.8921925 42.0999028,93.4576543 C41.9739912,93.9206376 41.8650948,95.8805391 41.8650948,96.6271683 C41.8650948,96.8760447 41.9586777,98.7005282 42.0216334,100.245026 C42.0675741,101.456468 43,101.189292 43,101.935921 C43,103.050375 40.8714147,102.999136 40.1891104,102.999136 C39.5510452,102.999136 37.4224599,103.066845 37.4224599,102.00363 C37.4224599,101.423529 38.1200778,101.32288 38.2289742,100.792188 C38.29193,100.510372 38.6016043,97.6556134 38.0588235,97.6556134 C37.577297,97.6556134 37.080457,99.1159322 36.7061254,99.9613799 C36.3641225,100.724479 35.8060282,102.616671 35.3074866,102.550792 C35.0590666,102.517853 34.9365581,102.550792 34.0041322,100.310905 L33.1023335,98.1533661 Z" id="Fill-19"></path>
            <path d="M48.44315,91.3289652 C50.5344828,91.3289652 50.8300715,91 51.0795278,91 C51.9697111,91 52.3438956,92.6068685 52.3438956,93.3280615 C52.3438956,93.8685043 52.1422802,94.5101672 51.5323082,94.5101672 C50.3004039,94.5101672 51.2982293,92.9358337 48.3337993,92.9358337 C46.6012737,92.9358337 46.7738428,93.2629914 46.7738428,95.1482151 C46.7738428,96.0989607 46.8199751,96.1314957 47.7716682,96.1314957 C48.9574402,96.1314957 48.0689655,94.3113421 49.1761417,94.3113421 C50.0817024,94.3113421 50.1432122,96.1640307 50.1432122,96.8020786 C50.1432122,97.474469 50.0338614,99.4410303 49.0975458,99.4410303 C48.1304753,99.4410303 49.0975458,97.7220967 47.5222119,97.7220967 C46.8678161,97.7220967 46.8831935,98.3456846 46.8831935,98.8698599 C46.8831935,101.261184 47.0386766,101.149119 48.677229,101.149119 C51.8757378,101.149119 50.9701771,98.8355174 52.2516309,98.8355174 C52.748835,98.8355174 53,99.4247628 53,99.8856756 C53,101.000904 52.1559491,103 51.5323082,103 C51.4229574,103 51.1735011,102.951197 50.8454489,102.900587 C50.5020193,102.868052 50.0663249,102.817442 49.5349487,102.817442 L43.1225536,102.817442 C42.0922647,102.817442 42.0768872,102.32761 42.0768872,102.116132 C42.0768872,101.212381 43.137931,101.933574 43.2472818,100.196566 C43.4352283,97.2123814 43.4506058,97.5088116 43.2934141,94.5408947 C43.1840634,92.0338906 42,93.3280615 42,92.1640307 C42,91.1644826 43.3087916,91.3289652 43.9495185,91.3289652 L48.44315,91.3289652 Z" id="Fill-21"></path>
            <path d="M62.2235674,96.1784081 C62.2235674,94.0722781 62.0766747,93.589204 61.91364,93.3568161 C61.574657,92.873742 61,92.8261665 61,92.1948765 C61,91 64.0056497,91 64.3026634,91 C65.1856336,91 67,91.0329369 67,92.1637694 C67,92.7602928 66.4382567,92.7273559 66.1008878,93.1591949 C65.8216303,93.5233303 65.8054883,95.0164684 65.8054883,96.1784081 L65.8054883,97.8197621 C65.8054883,100.776761 65.9814366,100.709058 66.2768362,100.906679 C66.6448749,101.157365 67,101.239707 67,101.753888 C67,102.251601 66.866021,103 63.637611,103 C63.0193705,103 61.1614205,102.983532 61.1614205,101.920403 C61.1614205,101.389753 61.6634383,101.305581 61.8991122,100.990851 C62.0766747,100.758463 62.2235674,100.145471 62.2235674,97.8197621 L62.2235674,96.1784081 Z" id="Fill-23"></path>
            <path d="M71.1023335,98.1533661 C71.0087506,97.9392592 70.8385999,97.4378465 70.5578512,97.4378465 C70.0763247,97.4378465 70.2311619,99.6301547 70.2311619,100.177317 C70.2311619,101.952391 71.2265435,101.125243 71.2265435,102.0201 C71.2265435,102.966196 69.5641711,102.999136 68.9567331,102.999136 C68.4139524,102.999136 67,102.949726 67,102.085979 C67,101.141713 67.9324259,101.921281 68.0566359,100.557951 C68.1808459,99.1671714 68.3203695,97.6226738 68.3203695,95.2162588 C68.3203695,94.2207532 68.2591152,93.7047007 68.0889645,93.3240663 C67.9324259,92.9745413 67.0459407,92.859253 67.0459407,92.1785029 C67.0459407,91.2342366 68.4922217,91 69.7360233,91 C71.5532329,91 71.5226057,91.3312252 71.9888187,92.1785029 C72.5315994,93.1593686 73.4963539,95.8805391 74.1786582,96.0470667 C74.6601847,96.1605251 75.2982499,94.1530442 75.8563442,93.0587201 C76.6492465,91.4977528 76.66456,91 78.7165775,91 C79.3988819,91 80.9540593,91.0494093 80.9540593,92.0961541 C80.9540593,92.7604344 80.2547399,92.8921925 80.0999028,93.4576543 C79.9739912,93.9206376 79.8650948,95.8805391 79.8650948,96.6271683 C79.8650948,96.8760447 79.9586777,98.7005282 80.0216334,100.245026 C80.0675741,101.456468 81,101.189292 81,101.935921 C81,103.050375 78.8714147,102.999136 78.1891104,102.999136 C77.5510452,102.999136 75.4224599,103.066845 75.4224599,102.00363 C75.4224599,101.423529 76.1217793,101.32288 76.2306757,100.792188 C76.29193,100.510372 76.6016043,97.6556134 76.060525,97.6556134 C75.577297,97.6556134 75.080457,99.1159322 74.7078269,99.9613799 C74.3641225,100.724479 73.8060282,102.616671 73.3074866,102.550792 C73.0607681,102.517853 72.9365581,102.550792 72.0041322,100.310905 L71.1023335,98.1533661 Z" id="Fill-25"></path>
            <path d="M82.4800317,93.74343 C82.4800317,92.5038736 81,93.0489139 81,92.0098739 C81,91.3481695 81.6990491,91.1986936 82.192393,91.1986936 C82.5916006,91.1986936 82.9733756,91.2315054 83.3708399,91.2315054 C85.6789223,91.2315054 87.0805071,91 87.7499208,91 C89.9133122,91 92,92.3070029 92,94.7842929 C92,97.2488227 89.9935024,98.5704086 87.7830428,98.5704086 C87.303645,98.5704086 86.8259905,98.4883792 86.3971474,98.4883792 C86.2053883,98.4883792 86.1426307,98.5704086 86.1426307,98.7526963 L86.1426307,99.7115297 C86.1896989,101.776849 87.3507132,100.920097 87.3507132,101.877108 C87.3507132,102.950782 85.0583201,103 84.3418384,103 C83.674168,103 81.3172742,102.983594 81.3172742,101.909919 C81.3172742,101.000304 82.4800317,101.563573 82.4800317,100.207352 L82.4800317,93.74343 Z M86.7458003,92.9504785 C86.1251981,92.9504785 86.1426307,93.1491721 86.1426307,93.4791129 L86.1426307,95.9582257 C86.1426307,96.3063953 85.9979398,96.6855537 86.8573693,96.6855537 C87.9085578,96.6855537 88.3234548,95.8597904 88.3234548,94.8517393 C88.3234548,93.8090536 87.8126783,92.9504785 86.7458003,92.9504785 L86.7458003,92.9504785 Z" id="Fill-27"></path>
            <path d="M94.2428709,94.5425629 C94.2428709,91.9887913 93,93.0430173 93,92.019691 C93,91.1145108 94.2751068,91 94.9305689,91 C95.2726271,91 95.6003582,91.0308997 95.9442072,91.0472584 C96.2701474,91.0817934 96.6139964,91.1145108 96.9417275,91.1145108 C97.4646646,91.1145108 97.9876016,91.0817934 98.5266566,91.0472584 C99.0513845,91.0308997 99.5904395,91 100.115167,91 C101.961565,91 104.103458,91.8233869 104.103458,94.0154499 C104.103458,95.0042411 103.630665,95.9603151 102.713735,96.4056347 C102.566882,96.4874281 102.452266,96.5383217 102.452266,96.7346259 C102.452266,96.9836413 102.665381,97.049076 102.860587,97.1308694 C104.004959,97.5598304 104.513569,98.3177825 104.742802,100.099061 C104.939799,101.629506 106,100.709785 106,101.713117 C106,102.3402 105.249621,103 103.401433,103 C100.784957,103 100.457226,101.482278 99.9504064,99.3065738 C99.7695275,98.5486216 99.491941,97.8070282 98.5929191,97.8070282 C98.2347431,97.8070282 98.1022179,97.8561042 98.1022179,98.8957892 C98.1022179,99.3720085 98.1344538,100.033626 98.2168343,100.493487 C98.3475685,101.251439 99.1821187,101.0206 99.1821187,101.811269 C99.1821187,102.405635 98.773798,102.849137 96.1232952,102.849137 C95.3370988,102.849137 93.0161179,102.849137 93.0161179,101.647683 C93.0161179,100.791578 94.2428709,101.384126 94.2428709,99.241139 L94.2428709,94.5425629 Z M98.0377462,95.2677976 C98.0037195,95.6985762 97.921339,96.0602848 98.4621849,96.0602848 C99.5241769,96.0602848 99.8680259,95.4659194 99.8680259,94.4444108 C99.8680259,93.635565 99.6728199,92.8121781 98.7236534,92.8121781 C98.1201267,92.8121781 98.1344538,93.192063 98.1022179,93.7028173 L98.0377462,95.2677976 Z" id="Fill-29"></path>
            <path d="M105,96.9582451 C105,93.4689864 107.856594,91 111.54258,91 C116.209769,91 118,95.0012103 118,97.1234493 C118,100.66354 114.789803,103 111.338935,103 C107.773284,103 105,100.465658 105,96.9582451 M110.765024,93.4526475 C109.818997,93.4526475 109.345058,94.4075643 109.345058,95.2136157 C109.345058,96.6151286 110.359584,100.549168 112.18499,100.549168 C113.214326,100.549168 113.654942,99.6759455 113.654942,98.7881997 C113.654942,97.2886536 112.74409,93.4526475 110.765024,93.4526475" id="Fill-31"></path>
            <path d="M126.177326,101.557659 C125.831425,102.238561 125.501737,103 124.613563,103 C123.660533,103 123.411916,102.452716 123.051602,101.671143 L119.77815,94.3679187 C119.284519,93.2898237 119.134989,93.0903121 118.49363,92.9914714 C118.165744,92.9420511 118,92.6931192 118,92.3453466 C118,91.06774 120.61588,91.0000159 121.455411,91.0000159 C124.909021,91.0000159 124.779308,91.8310093 124.779308,92.0781108 C124.779308,92.7095926 123.988418,92.7425395 123.988418,93.1909831 C123.988418,93.540586 124.631579,94.8346661 125.024321,95.6986064 C125.173851,95.9786548 125.354008,96.62661 125.716124,96.6430835 C126.258397,96.6760303 126.539442,95.7480267 126.735813,95.3984237 C126.933985,94.9994005 127.690645,93.5076392 127.690645,93.1086159 C127.690645,92.5119114 126.851113,92.6766457 126.851113,92.0122171 C126.851113,90.9835424 128.92472,91.0000159 129.584095,91.0000159 C131.6559,91.0000159 132,91.3807353 132,91.9627968 C132,92.4112404 131.672114,92.6272254 131.27757,92.6766457 C130.569553,92.7590129 130.504697,92.7095926 129.877751,93.9871992 L126.177326,101.557659 Z" id="Fill-33"></path>
            <path d="M139.443858,91.3289652 C141.534866,91.3289652 141.830408,91 142.078118,91 C142.968163,91 143.343998,92.6068685 143.343998,93.3280615 C143.343998,93.8685043 143.140705,94.5101672 142.532536,94.5101672 C141.300823,94.5101672 142.298494,92.9358337 139.334524,92.9358337 C137.602267,92.9358337 137.773101,93.2629914 137.773101,95.1482151 C137.773101,96.0989607 137.820935,96.1314957 138.77248,96.1314957 C139.958068,96.1314957 139.069731,94.3113421 140.176736,94.3113421 C141.080447,94.3113421 141.143656,96.1640307 141.143656,96.8020786 C141.143656,97.474469 141.034322,99.4410303 140.098152,99.4410303 C139.131232,99.4410303 140.098152,97.7220967 138.523063,97.7220967 C137.86706,97.7220967 137.882435,98.3456846 137.882435,98.8698599 C137.882435,101.261184 138.039602,101.149119 139.6779,101.149119 C142.875912,101.149119 141.970492,98.8355174 143.250039,98.8355174 C143.748874,98.8355174 144,99.4247628 144,99.8856756 C144,101.000904 143.15608,103 142.532536,103 C142.423202,103 142.173785,102.951197 141.845784,102.900587 C141.502407,102.868052 141.065072,102.817442 140.535487,102.817442 L134.124088,102.817442 C133.093959,102.817442 133.078584,102.32761 133.078584,102.116132 C133.078584,101.212381 134.139463,101.933574 134.247088,100.196566 C134.436714,97.2123814 134.452089,97.5088116 134.294922,94.5408947 C134.185588,92.0338906 133,93.3280615 133,92.1640307 C133,91.1644826 134.310297,91.3289652 134.950924,91.3289652 L139.443858,91.3289652 Z" id="Fill-35"></path>
            <path d="M149.102333,98.1533661 C149.008751,97.9392592 148.8386,97.4378465 148.557851,97.4378465 C148.076325,97.4378465 148.232863,99.6301547 148.232863,100.177317 C148.232863,101.952391 149.226544,101.125243 149.226544,102.0201 C149.226544,102.966196 147.564171,102.999136 146.958435,102.999136 C146.413952,102.999136 145,102.949726 145,102.085979 C145,101.141713 145.932426,101.921281 146.056636,100.557951 C146.180846,99.1671714 146.322071,97.6226738 146.322071,95.2162588 C146.322071,94.2207532 146.259115,93.7047007 146.088965,93.3240663 C145.932426,92.9745413 145.047642,92.859253 145.047642,92.1785029 C145.047642,91.2342366 146.492222,91 147.736023,91 C149.553233,91 149.522606,91.3312252 149.988819,92.1785029 C150.531599,93.1593686 151.496354,95.8805391 152.178658,96.0470667 C152.660185,96.1605251 153.29825,94.1530442 153.856344,93.0587201 C154.650948,91.4977528 154.666262,91 156.716578,91 C157.400583,91 158.954059,91.0494093 158.954059,92.0961541 C158.954059,92.7604344 158.25474,92.8921925 158.099903,93.4576543 C157.973991,93.9206376 157.866796,95.8805391 157.866796,96.6271683 C157.866796,96.8760447 157.960379,98.7005282 158.021633,100.245026 C158.069276,101.456468 159,101.189292 159,101.935921 C159,103.050375 156.871415,102.999136 156.18911,102.999136 C155.551045,102.999136 153.42246,103.066845 153.42246,102.00363 C153.42246,101.423529 154.121779,101.32288 154.230676,100.792188 C154.29193,100.510372 154.601604,97.6556134 154.058824,97.6556134 C153.577297,97.6556134 153.080457,99.1159322 152.707827,99.9613799 C152.365824,100.724479 151.806028,102.616671 151.309188,102.550792 C151.059067,102.517853 150.936558,102.550792 150.004132,100.310905 L149.102333,98.1533661 Z" id="Fill-37"></path>
            <path d="M165.443858,91.3289652 C167.534866,91.3289652 167.830408,91 168.079826,91 C168.969871,91 169.343998,92.6068685 169.343998,93.3280615 C169.343998,93.8685043 169.140705,94.5101672 168.532536,94.5101672 C167.300823,94.5101672 168.298494,92.9358337 165.334524,92.9358337 C163.602267,92.9358337 163.773101,93.2629914 163.773101,95.1482151 C163.773101,96.0989607 163.820935,96.1314957 164.77248,96.1314957 C165.958068,96.1314957 165.069731,94.3113421 166.176736,94.3113421 C167.080447,94.3113421 167.143656,96.1640307 167.143656,96.8020786 C167.143656,97.474469 167.034322,99.4410303 166.098152,99.4410303 C165.131232,99.4410303 166.098152,97.7220967 164.523063,97.7220967 C163.868768,97.7220967 163.882435,98.3456846 163.882435,98.8698599 C163.882435,101.261184 164.039602,101.149119 165.6779,101.149119 C168.875912,101.149119 167.970492,98.8355174 169.250039,98.8355174 C169.748874,98.8355174 170,99.4247628 170,99.8856756 C170,101.000904 169.15608,103 168.532536,103 C168.423202,103 168.173785,102.951197 167.845784,102.900587 C167.502407,102.868052 167.066781,102.817442 166.535487,102.817442 L160.124088,102.817442 C159.093959,102.817442 159.078584,102.32761 159.078584,102.116132 C159.078584,101.212381 160.139463,101.933574 160.247088,100.196566 C160.436714,97.2123814 160.452089,97.5088116 160.294922,94.5408947 C160.185588,92.0338906 159,93.3280615 159,92.1640307 C159,91.1644826 160.310297,91.3289652 160.950924,91.3289652 L165.443858,91.3289652 Z" id="Fill-39"></path>
            <path d="M179.874416,95.1833288 C180.072392,95.3480444 180.60275,95.8312102 180.902439,95.8312102 C181.316554,95.8312102 181.332901,95.1485555 181.332901,94.8667088 C181.332901,94.4530895 181.316554,93.7393218 181.183965,93.3568156 C180.953295,92.6595195 180.072392,92.9084231 180.072392,92.0134682 C180.072392,90.9501374 181.765179,91.0013822 182.46082,91.0013822 C183.192787,91.0013822 185,90.9171942 185,92.0628829 C185,93.0109128 184.120913,92.6595195 183.837571,93.4227018 C183.623249,94.0211686 183.623249,95.0497261 183.623249,95.6793058 L183.623249,99.9802136 C183.623249,100.725094 183.721328,103 182.611572,103 C182.27919,103 181.995848,102.800511 181.748832,102.586381 L176.623249,97.9871547 C176.392579,97.7730243 175.960301,97.3740465 175.611572,97.3740465 C175.097561,97.3740465 175.081214,98.4520187 175.081214,98.8015819 C175.081214,99.2646158 175.097561,99.8795541 175.197457,100.311475 C175.444473,101.372976 176.32356,100.975828 176.32356,101.788425 C176.32356,102.901171 174.616243,103 173.837052,103 C173.074209,103 171.365075,102.901171 171.365075,101.821368 C171.365075,100.941055 172.327711,101.290618 172.492994,100.229117 C172.609237,99.5135194 172.643747,98.4703205 172.643747,97.7236097 C172.643747,96.5266762 172.643747,95.3151013 172.460301,94.1199979 C172.193306,92.4600305 171,93.107912 171,92.1122976 C171,90.9336658 173.239491,91.0013822 173.985989,91.0013822 C175.014011,91.0013822 175.197457,91.0672685 175.942138,91.7316215 L179.874416,95.1833288 Z" id="Fill-41"></path>
            <path d="M193.108156,91.2314685 C193.808795,91.2314685 194.135047,91.1658554 194.377507,91.1166455 C194.605705,91.0473872 194.735849,91 195.046056,91 C195.680731,91 197,92.2721652 197,94.0582998 C197,94.8839314 196.575695,95.4307073 195.744912,95.4307073 C194.329372,95.4307073 194.345417,93.4787174 193.514634,93.4787174 C192.879958,93.4787174 192.945922,94.3717847 192.945922,94.5048335 L192.945922,99.5789137 C192.945922,101.543662 194.443471,100.603207 194.443471,101.758727 C194.443471,102.272696 194.135047,102.999908 191.090031,102.999908 C190.259248,102.999908 187.214233,103.034537 187.214233,101.758727 C187.214233,100.883885 188.225078,101.230177 188.549547,100.603207 C188.711781,100.255093 188.777745,99.2636063 188.795573,98.8517018 L188.923934,95.1974162 C188.989897,93.4641367 188.647601,93.4787174 188.419403,93.4787174 C187.686674,93.4787174 187.328332,95.4307073 186.010845,95.4307073 C185.374387,95.4307073 185,94.8347216 185,94.2387359 C185,92.8353444 186.17308,91 187.100134,91 C187.214233,91 187.394295,91.0473872 187.702719,91.1166455 C188.012925,91.1658554 188.451493,91.2314685 189.102214,91.2314685 L193.108156,91.2314685 Z" id="Fill-43"></path>
            <path d="M198.297916,94.8336106 C198.297916,93.1237332 199.870157,91 202.921646,91 C203.927329,91 205.058722,91.4610498 205.296366,91.4610498 C205.515068,91.4610498 205.735492,91.2305249 206.066127,91.2305249 C206.601688,91.2305249 207.795075,92.4975042 207.795075,93.8806535 C207.795075,94.4397217 207.450663,94.9987899 206.868607,94.9987899 C205.814706,94.9987899 205.201653,93.1237332 203.565697,93.1237332 C203.078354,93.1237332 202.560014,93.3542581 202.560014,93.9459991 C202.560014,95.2456512 204.71431,94.8989563 206.537971,96.1659356 C207.514379,96.8411738 208,97.66707 208,98.9013765 C208,100.827258 206.491476,103 202.826933,103 C201.788531,103 200.011366,102.720466 199.115895,102.208592 C198.361633,101.763878 198,100.019513 198,99.1809106 C198,98.7343821 198.187704,98.2914839 198.659549,98.2914839 C199.775443,98.2914839 199.587739,100.90894 202.480799,100.90894 C202.826933,100.90894 203.691407,100.727424 203.691407,100.101195 C203.691407,98.9177129 201.53711,99.2135834 199.790942,97.7469369 C198.926468,97.0245046 198.297916,96.0189079 198.297916,94.8336106" id="Fill-45"></path>
        </g>
    </g>
</svg>