<?xml version="1.0" encoding="UTF-8"?>
<svg width="710px" height="564px" viewBox="0 0 710 564" version="1.1" xmlns="http://www.w3.org/2000/svg" xmlns:xlink="http://www.w3.org/1999/xlink">
    <title>LogoOrangeBlack</title>
    <defs>
        <polygon id="path-1" points="0 0 709.9998 0 709.9998 564 0 564"></polygon>
    </defs>
    <g id="DH-Web-Dev-Logo" stroke="none" stroke-width="1" fill="none" fill-rule="evenodd">
        <g id="LogoOrangeBlack">
            <g id="Square" transform="translate(0.000000, 0.000000)">
                <mask id="mask-2" fill="white">
                    <use xlink:href="#path-1"></use>
                </mask>
                <g id="Clip-2"></g>
                <path d="M685.9498,564 L496.7188,564 C495.9338,564 495.2968,563.363 495.2968,562.578 L495.2968,535.422 C495.2968,534.637 495.9338,534 496.7188,534 L678.5778,534 C679.3628,534 679.9998,533.363 679.9998,532.578 L679.9998,31.422 C679.9998,30.637 679.3628,30 678.5778,30 L31.4228,30 C30.6368,30 29.9998,30.637 29.9998,31.422 L29.9998,377.259 C29.9998,378.045 29.3628,378.682 28.5778,378.682 L1.4228,378.682 C0.6368,378.682 -0.0002,378.045 -0.0002,377.259 L-0.0002,24.05 C-0.0002,10.768 10.7678,0 24.0498,0 L685.9498,0 C699.2328,0 709.9998,10.768 709.9998,24.05 L709.9998,539.95 C709.9998,553.232 699.2328,564 685.9498,564" id="Fill-1" fill="#F46036" mask="url(#mask-2)"></path>
            </g>
            <path d="M83.4946,430.6748 C83.4946,423.1538 81.2056,421.8458 72.3776,421.8458 L18.0986,421.8458 L18.0986,470.7838 L72.3776,470.7838 C81.2056,470.7838 83.4946,469.4768 83.4946,462.6098 L83.4946,430.6748 Z M0.3326,484.7358 L0.3326,408.0038 L72.3776,408.0038 C94.6126,408.0038 101.3696,415.5248 101.3696,430.6748 L101.3696,462.8278 C101.3696,477.2148 94.6126,484.7358 72.3776,484.7358 L0.3326,484.7358 Z M195.874,484.7354 L195.874,451.1664 L137.454,451.1664 L137.454,484.7354 L119.688,484.7354 L119.688,408.0044 L137.454,408.0044 L137.454,437.2144 L195.874,437.2144 L195.874,408.0044 L213.749,408.0044 L213.749,484.7354 L195.874,484.7354 Z" id="Dh" fill="#1B1B1B"></path>
            <path d="M66.1729,563.1348 L47.8119,521.5878 L29.3059,563.1348 L23.9049,563.1348 L0.7909,512.4438 L7.9199,512.4438 L26.5689,553.9898 L45.0749,512.4438 L50.5479,512.4438 L68.9089,553.9898 L87.6309,512.4438 L94.8319,512.4438 L71.7169,563.1348 L66.1729,563.1348 Z M103.6069,563.1348 L103.6069,512.4438 L154.4429,512.4438 L154.4429,518.2758 L111.0239,518.2758 L111.0239,533.4688 L152.3549,533.4688 L152.3549,539.2288 L111.0239,539.2288 L111.0239,557.3748 L154.4429,557.3748 L154.4429,563.1348 L103.6069,563.1348 Z M215.3545,545.0615 C215.3545,541.2455 212.1865,539.7335 207.8655,539.7335 L174.0945,539.7335 L174.0945,557.3745 L204.4095,557.3745 C211.0345,557.3745 215.3545,556.2945 215.3545,550.8945 L215.3545,545.0615 Z M214.7785,523.8205 C214.7785,519.8595 212.2585,518.2755 205.6335,518.2755 L174.0945,518.2755 L174.0945,533.9725 L207.7215,533.9725 C212.5455,533.9725 214.7785,532.5335 214.7785,528.9315 L214.7785,523.8205 Z M166.6785,563.1345 L166.6785,512.4435 L206.9295,512.4435 C217.8745,512.4435 222.1235,516.6195 222.1235,523.3875 L222.1235,528.1405 C222.1235,532.7485 219.4585,535.9885 215.4985,536.5645 C219.6745,537.4295 222.7715,539.9495 222.7715,544.9175 L222.7715,552.1905 C222.7715,557.9515 219.3145,563.1345 207.0735,563.1345 L166.6785,563.1345 Z M234.069,563.134 L242.854,563.134 L242.854,553.774 L234.069,553.774 L234.069,563.134 Z M312.769,527.4199 C312.769,520.7239 310.249,518.2749 301.824,518.2749 L263.949,518.2749 L263.949,557.3749 L301.824,557.3749 C310.249,557.3749 312.769,554.9269 312.769,548.6619 L312.769,527.4199 Z M256.532,563.1349 L256.532,512.4429 L301.824,512.4429 C315.793,512.4429 320.114,517.4109 320.114,527.4199 L320.114,548.6619 C320.114,558.1669 315.793,563.1349 301.824,563.1349 L256.532,563.1349 Z M333.2124,563.1348 L333.2124,512.4438 L384.0484,512.4438 L384.0484,518.2758 L340.6294,518.2758 L340.6294,533.4688 L381.9614,533.4688 L381.9614,539.2288 L340.6294,539.2288 L340.6294,557.3748 L384.0484,557.3748 L384.0484,563.1348 L333.2124,563.1348 Z M425.1582,563.1348 L391.6032,512.4438 L400.0272,512.4438 L427.9672,555.5738 L455.8332,512.4438 L463.9702,512.4438 L430.5582,563.1348 L425.1582,563.1348 Z" id="web-dev" fill="#1B1B1B"></path>
        </g>
    </g>
</svg>